# xmcd
#
# Track frame offsets: 
#        182
#        10167
#        21050
#        42350
#        55182
#        61695
#        75565
#        88247
#        99797
#        111970
#        123357
#        138830
#        151185
#        165050
#        185570
#        197165
#        207352
#
# Disc length: 2913 seconds
#
# Revision: 2
# Processed by: cddbd v1.4PL0 Copyright (c) Steve Scherf et al.
# Submitted via: ExactAudioCopy v0.90b4
#
DISCID=cd0b5f11
DTITLE=Various Artist - Legends Of Guitar Country Volume 1
DYEAR=1991
DGENRE=Country
TTITLE0=Larry Collins and Joe Maphis - Hurricane
TTITLE1=Jimmy Bryant With Speedy West - The Night Rider
TTITLE2=Marty Robbins - El Paso
TTITLE3=Spade Cooley and His Orchestra - Oklahoma Stomp
TTITLE4=Merle Travis - Cannon Ball Stomp
TTITLE5=Roy Lanham - Lost Weekend
TTITLE6=Milton Brown and His Musical Brownies - Cheesy Breeze
TTITLE7=Chet Atkins - Galloping On The Guitar
TTITLE8=Bob Wills and His Texas Playboys - Twin Guitar Special
TTITLE9=Texas Troubadors Featuring Leon Rhodes - Honey Fingers
TTITLE10=Arthur Smith and His Crackerjacks - Guitar Boogie
TTITLE11=Hank "Sugarfoot" Garland - Sugarfoot Rag
TTITLE12=Carl Perkins - Tennessee
TTITLE13=Merle Haggard - I Think I'll Just Stay Here And Drink
TTITLE14=Webb Pierce - Slowly
TTITLE15=Doc Watson - Windy And Warm
TTITLE16=Byrds - Nashville West
EXTD=
EXTT0=Collins, Larry and Maphis, Joe
EXTT1=Bryant, Jimmy
EXTT2=Robbins, Marty
EXTT3=Spade Cooley and His Orchestra
EXTT4=Travis,Merle
EXTT5=Lanham, Roy
EXTT6=Milton Brown and His Musical Brownies
EXTT7=Atkins, Chet
EXTT8=Wills, Bob and His Texas Playboys
EXTT9=Texas Troubadours
EXTT10=Garland, Hank
EXTT11=
EXTT12=Perkins, Carl      
EXTT13=Haggard, Merle
EXTT14=Pierce, Webb
EXTT15=Watson, Doc
EXTT16=Byrds, The
PLAYORDER=
